<svg id="visual" viewBox="0 0 600 900" width="600" height="900" xmlns="http://www.w3.org/2000/svg" xmlns:xlink="http://www.w3.org/1999/xlink" version="1.1"><rect x="0" y="0" width="600" height="900" fill="#001220"></rect><defs><linearGradient id="grad1_0" x1="0%" y1="0%" x2="100%" y2="100%"><stop offset="30%" stop-color="#001220" stop-opacity="1"></stop><stop offset="70%" stop-color="#001220" stop-opacity="1"></stop></linearGradient></defs><defs><linearGradient id="grad2_0" x1="0%" y1="0%" x2="100%" y2="100%"><stop offset="30%" stop-color="#001220" stop-opacity="1"></stop><stop offset="70%" stop-color="#001220" stop-opacity="1"></stop></linearGradient></defs><g transform="translate(600, 0)"><path d="M0 459.7C-40.8 458 -81.7 456.3 -119 444C-156.3 431.8 -190.1 409 -224.5 388.8C-258.9 368.7 -293.9 351 -323.9 323.9C-353.8 296.7 -378.9 260 -381.1 220C-383.2 180 -362.6 136.9 -371.9 99.6C-381.2 62.4 -420.4 31.2 -459.7 0L0 0Z" fill="#FBAE3C"></path></g><g transform="translate(0, 900)"><path d="M0 -459.7C33.6 -429.8 67.2 -399.8 104.3 -389.3C141.4 -378.7 181.9 -387.6 217.5 -376.7C253.1 -365.9 283.7 -335.3 301.9 -301.9C320.2 -268.5 326 -232.2 351.6 -203C377.2 -173.8 422.7 -151.6 444 -119C465.4 -86.3 462.5 -43.2 459.7 0L0 0Z" fill="#FBAE3C"></path></g></svg>