<svg id="visual" viewBox="0 0 600 900" width="600" height="900" xmlns="http://www.w3.org/2000/svg" xmlns:xlink="http://www.w3.org/1999/xlink" version="1.1"><rect x="0" y="0" width="600" height="900" fill="#001220"></rect><defs><linearGradient id="grad1_0" x1="0%" y1="100%" x2="100%" y2="0%"><stop offset="30%" stop-color="#001220" stop-opacity="1"></stop><stop offset="70%" stop-color="#001220" stop-opacity="1"></stop></linearGradient></defs><defs><linearGradient id="grad2_0" x1="0%" y1="100%" x2="100%" y2="0%"><stop offset="30%" stop-color="#001220" stop-opacity="1"></stop><stop offset="70%" stop-color="#001220" stop-opacity="1"></stop></linearGradient></defs><g transform="translate(600, 900)"><path d="M-459.7 0C-435.3 -30.1 -410.8 -60.3 -399.7 -91.2C-388.6 -122.2 -390.8 -154 -383.8 -184.8C-376.8 -215.6 -360.7 -245.4 -344 -274.3C-327.3 -303.3 -310.1 -331.4 -286.6 -359.4C-263.1 -387.4 -233.4 -415.2 -197 -409C-160.5 -402.9 -117.4 -362.8 -83.4 -365.6C-49.5 -368.4 -24.7 -414 0 -459.7L0 0Z" fill="#FBAE3C"></path></g><g transform="translate(0, 0)"><path d="M459.7 0C414.9 25.5 370.1 50.9 360.7 82.3C351.4 113.7 377.5 151 375.7 180.9C374 210.8 344.4 233.3 322.9 257.5C301.4 281.7 288.1 307.7 270.6 339.3C253.1 371 231.4 408.3 199.5 414.2C167.6 420.1 125.5 394.5 90.6 396.8C55.6 399.1 27.8 429.4 0 459.7L0 0Z" fill="#FBAE3C"></path></g></svg>